<?xml version="1.0" standalone="no"?>
<!DOCTYPE svg PUBLIC "-//W3C//DTD SVG 20010904//EN"
 "http://www.w3.org/TR/2001/REC-SVG-20010904/DTD/svg10.dtd">
<svg version="1.0" xmlns="http://www.w3.org/2000/svg"
 width="160.000000pt" height="160.000000pt" viewBox="0 0 160.000000 160.000000"
 preserveAspectRatio="xMidYMid meet">

<g transform="translate(0.000000,160.000000) scale(0.100000,-0.100000)"
fill="#000000" stroke="none">
<path d="M755 1148 c-87 -18 -165 -122 -165 -219 0 -26 -7 -60 -15 -75 -11
-21 -15 -63 -15 -157 0 -123 7 -161 34 -179 6 -4 98 -8 204 -8 248 0 232 -12
232 183 0 110 -3 148 -15 163 -8 10 -15 39 -15 63 0 64 -19 116 -57 161 -54
63 -111 84 -188 68z m120 -109 c36 -32 59 -88 53 -129 l-3 -25 -130 0 -130 0
-3 27 c-5 42 32 115 70 138 50 30 100 26 143 -11z m-40 -264 c31 -30 31 -54 4
-89 -13 -17 -19 -36 -16 -51 5 -28 -15 -50 -38 -41 -9 3 -15 18 -15 40 0 19
-5 38 -11 41 -36 23 -28 98 13 115 34 13 37 12 63 -15z"/>
</g>
</svg>
